<svg width="25" height="24" viewBox="0 0 25 24" fill="none" xmlns="http://www.w3.org/2000/svg">
<rect width="24" height="24" transform="translate(0.742432)" fill="white"/>
<path d="M6.74243 10V8C6.74243 4.69 7.74243 2 12.7424 2C17.7424 2 18.7424 4.69 18.7424 8V10M12.7424 18.5C13.4055 18.5 14.0414 18.2366 14.5102 17.7678C14.979 17.2989 15.2424 16.663 15.2424 16C15.2424 15.337 14.979 14.7011 14.5102 14.2322C14.0414 13.7634 13.4055 13.5 12.7424 13.5C12.0794 13.5 11.4435 13.7634 10.9747 14.2322C10.5058 14.7011 10.2424 15.337 10.2424 16C10.2424 16.663 10.5058 17.2989 10.9747 17.7678C11.4435 18.2366 12.0794 18.5 12.7424 18.5Z" stroke="#837B7B" stroke-width="1.5" stroke-linecap="round" stroke-linejoin="round"/>
<path d="M17.7424 22H7.74243C3.74243 22 2.74243 21 2.74243 17V15C2.74243 11 3.74243 10 7.74243 10H17.7424C21.7424 10 22.7424 11 22.7424 15V17C22.7424 21 21.7424 22 17.7424 22Z" stroke="#837B7B" stroke-width="1.5" stroke-linecap="round" stroke-linejoin="round"/>
</svg>
