<svg width="26" height="25" viewBox="0 0 26 25" fill="none" xmlns="http://www.w3.org/2000/svg">
<path d="M13.409 11.3229C13.3049 11.3125 13.1799 11.3125 13.0653 11.3229C11.8696 11.2823 10.7368 10.778 9.90655 9.91662C9.07633 9.05529 8.61395 7.90464 8.61735 6.70833C8.61735 4.15625 10.6799 2.08333 13.2424 2.08333C13.849 2.07239 14.4519 2.18105 15.0166 2.4031C15.5813 2.62516 16.0967 2.95626 16.5334 3.37751C16.9702 3.79876 17.3196 4.30191 17.5619 4.85822C17.8042 5.41453 17.9345 6.01311 17.9455 6.61979C17.9564 7.22647 17.8478 7.82936 17.6257 8.39405C17.4037 8.95874 17.0725 9.47416 16.6513 9.91088C16.23 10.3476 15.7269 10.6971 15.1706 10.9394C14.6143 11.1816 14.0157 11.312 13.409 11.3229ZM8.20068 15.1667C5.67985 16.8542 5.67985 19.6042 8.20068 21.2813C11.0653 23.1979 15.7632 23.1979 18.6278 21.2813C21.1486 19.5938 21.1486 16.8438 18.6278 15.1667C15.7736 13.2604 11.0757 13.2604 8.20068 15.1667Z" stroke="#A5A5A5" stroke-width="1.5" stroke-linecap="round" stroke-linejoin="round"/>
<path d="M22.7424 10L18.7424 14" stroke="#A5A5A5"/>
<path d="M18.7424 10L22.7424 14" stroke="#A5A5A5"/>
</svg>
