<svg width="137" height="137" viewBox="0 0 133 129" fill="none" xmlns="http://www.w3.org/2000/svg">
	<mask id="mask0_109_5" style="mask-type:alpha" maskUnits="userSpaceOnUse" x="0" y="0" width="133" height="129">
		<rect x="133" y="129" width="133" height="129" transform="rotate(180 133 129)" fill="#D9D9D9" />
	</mask>
	<g mask="url(#mask0_109_5)">
		<path d="M277 138.5C277 203.67 220.812 256.5 151.5 256.5C82.1883 256.5 26 203.67 26 138.5C26 73.3304 82.1883 20.5 151.5 20.5C220.812 20.5 277 73.3304 277 138.5Z" fill="#6DC9DD" />
		<path d="M94.5556 77.3333H86.3333M86.3333 77.3333V85.5556M86.3333 77.3333L98.6667 89.6667M111 83.5C111 73.2827 102.717 65 92.5 65C82.2827 65 74 73.2827 74 83.5C74 93.7173 82.2827 102 92.5 102C102.717 102 111 93.7173 111 83.5Z" stroke="white" stroke-width="5" stroke-linecap="round" stroke-linejoin="round" />
	</g>
</svg>
