<svg width="17" height="18" viewBox="0 0 17 18" fill="none" xmlns="http://www.w3.org/2000/svg">
	<path d="M4.675 2.7284H3.94018C2.91108 2.7284 2.39615 2.7284 2.00309 2.91678C1.65734 3.08249 1.37644 3.3467 1.20028 3.67192C1 4.04165 1 4.526 1 5.494V6.18519M4.675 2.7284H12.025M4.675 2.7284V1M12.025 2.7284H12.7602C13.7893 2.7284 14.3031 2.7284 14.6962 2.91678C15.0419 3.08249 15.3238 3.3467 15.4999 3.67192C15.7 4.04129 15.7 4.52506 15.7 5.49116V6.18519M12.025 2.7284V1M1 6.18519V13.7903C1 14.7583 1 15.242 1.20028 15.6118C1.37644 15.937 1.65734 16.2017 2.00309 16.3674C2.39577 16.5556 2.91008 16.5556 3.93716 16.5556H12.7628C13.7899 16.5556 14.3035 16.5556 14.6962 16.3674C15.0419 16.2017 15.3238 15.937 15.4999 15.6118C15.7 15.2424 15.7 14.7593 15.7 13.7932V6.18519M1 6.18519H15.7M12.025 13.0988H12.0268L12.0268 13.1005L12.025 13.1005V13.0988ZM8.35 13.0988H8.35184L8.3518 13.1005L8.35 13.1005V13.0988ZM4.675 13.0988H4.67684L4.6768 13.1005L4.675 13.1005V13.0988ZM12.0268 9.64198V9.6437L12.025 9.64366V9.64198H12.0268ZM8.35 9.64198H8.35184L8.3518 9.6437L8.35 9.64366V9.64198ZM4.675 9.64198H4.67684L4.6768 9.6437L4.675 9.64366V9.64198Z" stroke="#7D7D7D" stroke-width="1.5" stroke-linecap="round" stroke-linejoin="round" />
</svg>
