<svg width="22" height="17" viewBox="0 0 22 17" fill="none" xmlns="http://www.w3.org/2000/svg">
<path d="M2.08759 2.29797L8.7302 7.118L8.73242 7.11977C9.47 7.6395 9.839 7.89952 10.2432 7.99996C10.6004 8.08875 10.9759 8.08875 11.3332 7.99996C11.7377 7.89943 12.1078 7.63865 12.8467 7.118C12.8467 7.118 17.1073 3.97625 19.4891 2.29797M1 12.5396V4.59728C1 3.42672 1 2.841 1.23708 2.39391C1.44562 2.00063 1.77814 1.68112 2.18743 1.48074C2.65273 1.25293 3.26229 1.25293 4.4805 1.25293H17.0966C18.3148 1.25293 18.923 1.25293 19.3883 1.48074C19.7976 1.68112 20.1313 2.00063 20.3398 2.39391C20.5766 2.84056 20.5766 3.42557 20.5766 4.59384V12.5432C20.5766 13.7114 20.5766 14.2956 20.3398 14.7422C20.1313 15.1355 19.7976 15.4556 19.3883 15.656C18.9235 15.8836 18.3155 15.8836 17.0997 15.8836H4.47693C3.2611 15.8836 2.65227 15.8836 2.18743 15.656C1.77814 15.4556 1.44562 15.1355 1.23708 14.7422C1 14.2952 1 13.7102 1 12.5396Z" stroke="#808080" stroke-width="1.5" stroke-linecap="round" stroke-linejoin="round"/>
</svg>
