<svg width="21" height="21" viewBox="0 0 21 21" fill="none" xmlns="http://www.w3.org/2000/svg">
<path d="M19.4891 16.2272C19.4891 16.547 19.415 16.8756 19.2576 17.1954C19.1002 17.5152 18.8965 17.8172 18.628 18.1015C18.1744 18.5811 17.6744 18.9276 17.1096 19.1497C16.5541 19.3717 15.9523 19.4872 15.3043 19.4872C14.3599 19.4872 13.3507 19.274 12.286 18.8387C11.2213 18.4035 10.1566 17.8172 9.10111 17.0799C8.02538 16.325 7.01028 15.4936 6.06435 14.5927C5.12811 13.6885 4.26461 12.7175 3.48125 11.688C2.72206 10.6754 2.11101 9.66273 1.66661 8.65897C1.2222 7.64632 1 6.67808 1 5.75426C1 5.15023 1.1111 4.57284 1.3333 4.03987C1.5555 3.49801 1.90732 3.00057 2.39802 2.55643C2.99056 1.9968 3.63865 1.72144 4.32377 1.72144C4.58301 1.72144 4.84224 1.77473 5.0737 1.88133C5.31442 1.98792 5.52736 2.14781 5.69402 2.37877L7.84197 5.28347C8.00862 5.50554 8.12898 5.70985 8.2123 5.90527C8.29563 6.09181 8.34192 6.27835 8.34192 6.44713C8.34192 6.66032 8.27711 6.87351 8.1475 7.07781C8.02714 7.28212 7.85123 7.49531 7.62902 7.7085L6.92538 8.41025C6.82354 8.50796 6.77725 8.62344 6.77725 8.76556C6.77725 8.83662 6.78651 8.8988 6.80503 8.96987C6.8328 9.04093 6.86058 9.09423 6.87909 9.14752C7.04574 9.44066 7.33275 9.82262 7.74013 10.2845C8.15675 10.7464 8.60116 11.2172 9.08259 11.688C9.58255 12.1588 10.064 12.5941 10.5547 12.9938C11.0361 13.3847 11.4342 13.6511 11.749 13.811C11.7953 13.8288 11.8509 13.8555 11.9157 13.8821C11.9897 13.9087 12.0638 13.9176 12.1471 13.9176C12.3045 13.9176 12.4249 13.8643 12.5267 13.7666L13.2304 13.1004C13.4618 12.8783 13.684 12.7096 13.897 12.603C14.1099 12.4786 14.3229 12.4164 14.5543 12.4164C14.7302 12.4164 14.9154 12.452 15.1191 12.5319C15.3228 12.6118 15.5357 12.7273 15.7672 12.8783L18.8317 14.9658C19.0724 15.1257 19.2391 15.3122 19.3409 15.5343C19.4335 15.7564 19.4891 15.9785 19.4891 16.2272Z" stroke="black" stroke-opacity="0.5" stroke-width="1.5" stroke-miterlimit="10"/>
</svg>
