<svg width="18" height="20" viewBox="0 0 18 20" fill="none" xmlns="http://www.w3.org/2000/svg">
	<path d="M4.91788 3H4.11077C2.98043 3 2.41485 3 1.98312 3.21799C1.60335 3.40973 1.29482 3.71547 1.10133 4.0918C0.881348 4.51962 0.881348 5.08009 0.881348 6.2002V7M4.91788 3H12.9909M4.91788 3V1M12.9909 3H13.7984C14.9288 3 15.4932 3 15.9249 3.21799C16.3046 3.40973 16.6142 3.71547 16.8077 4.0918C17.0275 4.5192 17.0275 5.07899 17.0275 6.19691V7M12.9909 3V1M0.881348 7V15.8002C0.881348 16.9203 0.881348 17.4801 1.10133 17.9079C1.29482 18.2842 1.60335 18.5905 1.98312 18.7822C2.41442 19 2.97933 19 4.10745 19H13.8014C14.9295 19 15.4936 19 15.9249 18.7822C16.3046 18.5905 16.6142 18.2842 16.8077 17.9079C17.0275 17.4805 17.0275 16.9215 17.0275 15.8036V7M0.881348 7H17.0275M12.9909 15H12.993L12.9929 15.002L12.9909 15.002V15ZM8.95441 15H8.95642L8.95638 15.002L8.95441 15.002V15ZM4.91788 15H4.9199L4.91985 15.002L4.91788 15.002V15ZM12.9929 11V11.002L12.9909 11.002V11H12.9929ZM8.95441 11H8.95642L8.95638 11.002L8.95441 11.002V11ZM4.91788 11H4.9199L4.91985 11.002L4.91788 11.002V11Z" stroke="#0754AD" stroke-width="1.5" stroke-linecap="round" stroke-linejoin="round" />
</svg>
