<svg width="63" height="65" viewBox="0 0 63 65" fill="none" xmlns="http://www.w3.org/2000/svg">
<path d="M3 32.811C3 49.127 15.7599 62.3537 31.5 62.3537C47.2401 62.3537 60 49.127 60 32.811C60 16.495 47.2401 3.26831 31.5 3.26831C15.7599 3.26831 3 16.495 3 32.811Z" fill="#93C96A"/>
<path d="M41 26.246L28.3333 39.376L22 32.811M31.5 62.3537C15.7599 62.3537 3 49.127 3 32.811C3 16.495 15.7599 3.26831 31.5 3.26831C47.2401 3.26831 60 16.495 60 32.811C60 49.127 47.2401 62.3537 31.5 62.3537Z" stroke="#FCF6F6" stroke-width="5" stroke-linecap="round" stroke-linejoin="round"/>
</svg>
