<svg width="53" height="53" viewBox="0 0 53 53" fill="none" xmlns="http://www.w3.org/2000/svg">
<path d="M3 26.5C3 39.4787 13.5213 50 26.5 50C39.4787 50 50 39.4787 50 26.5C50 13.5213 39.4787 3 26.5 3C13.5213 3 3 13.5213 3 26.5Z" fill="#5192C1"/>
<path d="M34.3333 21.2778L23.8889 31.7222L18.6667 26.5M26.5 50C13.5213 50 3 39.4787 3 26.5C3 13.5213 13.5213 3 26.5 3C39.4787 3 50 13.5213 50 26.5C50 39.4787 39.4787 50 26.5 50Z" stroke="#FCF6F6" stroke-width="5" stroke-linecap="round" stroke-linejoin="round"/>
</svg>
