<svg width="17" height="21" viewBox="0 0 17 21" fill="none" xmlns="http://www.w3.org/2000/svg">
<path d="M8.41193 9.55929C8.30317 9.55032 8.17266 9.55032 8.05303 9.55929C6.8047 9.52434 5.62187 9.09013 4.75505 8.34861C3.88823 7.60709 3.40547 6.61648 3.40901 5.58658C3.40901 3.38948 5.56245 1.6049 8.23792 1.6049C8.87135 1.59547 9.50082 1.68902 10.0904 1.88019C10.68 2.07136 11.2181 2.35641 11.6741 2.71906C12.1301 3.08172 12.495 3.51487 12.7479 3.9938C13.0009 4.47273 13.137 4.98806 13.1484 5.51035C13.1598 6.03264 13.0464 6.55168 12.8145 7.03782C12.5827 7.52396 12.237 7.96769 11.7972 8.34367C11.3573 8.71965 10.832 9.02051 10.2512 9.22909C9.67033 9.43767 9.04536 9.54987 8.41193 9.55929ZM2.97398 12.8684C0.342007 14.3212 0.342007 16.6887 2.97398 18.1325C5.96485 19.7825 10.8699 19.7825 13.8608 18.1325C16.4927 16.6797 16.4927 14.3122 13.8608 12.8684C10.8808 11.2273 5.97573 11.2273 2.97398 12.8684Z" stroke="black" stroke-opacity="0.51" stroke-width="1.5" stroke-linecap="round" stroke-linejoin="round"/>
</svg>
